<svg width="70" height="70" viewBox="0 0 70 70" fill="none" xmlns="http://www.w3.org/2000/svg">
<g clip-path="url(#clip0_813_269)">
<path fill-rule="evenodd" clip-rule="evenodd" d="M17.5 0C12.67 0 8.75 3.92 8.75 8.75V61.25C8.75 66.08 12.67 70 17.5 70C22.33 70 26.25 66.08 26.25 61.25V8.75C26.25 3.92 22.33 0 17.5 0ZM61.25 8.75V61.25C61.25 66.08 57.33 70 52.5 70C47.67 70 43.75 66.08 43.75 61.25V8.75C43.75 3.92 47.67 0 52.5 0C57.33 0 61.25 3.92 61.25 8.75Z" fill="url(#paint0_linear_813_269)"/>
</g>
<defs>
<linearGradient id="paint0_linear_813_269" x1="8.75" y1="35" x2="61.25" y2="35" gradientUnits="userSpaceOnUse">
<stop stop-color="#FF6600"/>
<stop offset="0.274" stop-color="#F26659"/>
<stop offset="0.374" stop-color="#F06177"/>
<stop offset="0.484" stop-color="#E65D97"/>
<stop offset="0.714" stop-color="#CA46D2"/>
<stop offset="1" stop-color="#8D13F9"/>
</linearGradient>
<clipPath id="clip0_813_269">
<rect width="70" height="70" fill="white"/>
</clipPath>
</defs>
</svg>
